<svg t="1677035463682"
    class="icon" viewBox="0 0 1024 1024" version="1.1" xmlns="http://www.w3.org/2000/svg" p-id="1331"
    xmlns:xlink="http://www.w3.org/1999/xlink" width="200" height="200">
    <path
        d="M654.9504 766.58688v105.472c0 21.48352-20.5824 38.89152-45.95712 38.89152s-45.95712-17.408-45.95712-38.89152v-105.472"
        fill="#00CE8E" p-id="1332"></path>
    <path
        d="M608.99328 921.6c-31.21152 0-56.60672-22.2208-56.60672-49.52064v-105.472c0-5.87776 4.77184-10.62912 10.62912-10.62912s10.62912 4.77184 10.62912 10.62912v105.472c0 15.5648 15.85152 28.24192 35.328 28.24192s35.328-12.67712 35.328-28.24192v-105.472c0-5.87776 4.77184-10.62912 10.62912-10.62912s10.62912 4.77184 10.62912 10.62912v105.472C665.6 899.3792 640.2048 921.6 608.99328 921.6z"
        p-id="1333"></path>
    <path
        d="M553.45152 488.91904c-119.43936 4.096-85.95456-174.44864-64.53248-255.91808 9.48224-36.06528-1.18784-75.01824-29.16352-99.67616-28.48768-25.10848-58.51136-23.40864-83.18976-13.63968-29.06112 11.48928-51.73248 34.75456-64.02048 63.34464-0.1024 0.22528-0.34816 0.3072-0.57344 0.18432-16.9984-9.40032-36.94592-14.09024-58.12224-12.26752-49.19296 4.25984-88.7808 44.40064-92.38528 93.65504-4.23936 57.97888 40.18176 106.57792 96.60416 109.17888-24.3712 127.67232-27.36128 281.47712 64.49152 371.95776 202.67008 199.65952 365.11744-15.89248 434.23744 84.19328 69.09952 100.08576 94.24896 39.17824 94.24896 39.17824 69.91872-501.98528-192.96256-383.77472-297.59488-380.19072z"
        fill="#00CE8E" p-id="1334"></path>
    <path
        d="M423.0144 766.58688v105.472c0 21.48352-20.5824 38.89152-45.95712 38.89152s-45.95712-17.408-45.95712-38.89152v-105.7792l91.91424 0.3072z"
        fill="#00CE8E" p-id="1335"></path>
    <path
        d="M331.10016 807.2192c-5.87776 0-10.62912-4.77184-10.62912-10.62912v-29.98272c0-5.87776 4.77184-10.62912 10.62912-10.62912 5.87776 0 10.62912 4.77184 10.62912 10.62912v29.98272c0 5.85728-4.77184 10.62912-10.62912 10.62912zM377.05728 921.6c-31.21152 0-56.60672-22.2208-56.60672-49.52064v-13.53728c0-5.87776 4.77184-10.62912 10.62912-10.62912 5.87776 0 10.62912 4.77184 10.62912 10.62912v13.53728c0 15.5648 15.85152 28.24192 35.328 28.24192s35.30752-12.67712 35.30752-28.24192v-105.472c0-5.87776 4.77184-10.62912 10.62912-10.62912 5.87776 0 10.62912 4.77184 10.62912 10.62912v105.472c0.04096 27.29984-25.35424 49.52064-56.54528 49.52064z"
        p-id="1336"></path>
    <path
        d="M553.45152 488.91904c-36.29056 1.24928-58.44992-14.39744-71.12704-39.0144-4.97664 48.61952 1.29024 96.23552 27.68896 135.65952 112.61952 168.12032 256.65536 41.20576 290.46784 120.832 33.81248 79.62624 60.06784 40.79616 60.06784 40.79616 0.63488-1.80224 1.20832-3.52256 1.8432-5.30432 9.87136-353.23904-214.28224-256.22528-308.9408-252.96896z"
        fill="#5FD9B3" p-id="1337"></path>
    <path
        d="M825.07776 898.12992c-22.95808 0-48.18944-20.3776-77.02528-62.13632-22.71232-32.89088-56.89344-25.82528-115.34336-10.46528-81.408 21.38112-192.90112 50.64704-317.58336-72.192-43.54048-42.9056-70.10304-102.912-78.92992-178.3808-6.53312-55.93088-3.39968-120.38144 9.33888-191.73376-25.74336-3.95264-49.09056-16.65024-66.68288-36.47488-20.2752-22.8352-30.208-52.28544-27.97568-82.92352 3.97312-54.29248 47.84128-98.77504 102.07232-103.46496 18.82112-1.61792 37.43744 1.41312 54.4768 8.78592 14.336-27.09504 37.66272-48.4352 65.24928-59.35104 34.52928-13.66016 67.09248-8.27392 94.12608 15.5648 30.3104 26.70592 43.02848 70.02112 32.41984 110.36672-13.14816 49.9712-39.44448 171.56096 0.04096 220.99968 12.24704 15.33952 29.9008 22.40512 53.84192 21.58592 13.7216-0.47104 31.06816-3.11296 49.43872-5.91872 37.90848-5.79584 85.07392-13.0048 128.55296-5.28384 5.77536 1.024 9.64608 6.5536 8.62208 12.32896s-6.53312 9.64608-12.32896 8.62208c-40.0384-7.08608-83.37408-0.47104-121.63072 5.36576-19.00544 2.90816-36.9664 5.65248-51.9168 6.16448-30.69952 1.06496-54.6816-8.88832-71.20896-29.57312-43.86816-54.92736-21.31968-173.75232-3.97312-239.69792 8.58112-32.62464-1.57696-67.56352-25.9072-88.9856-20.95104-18.45248-45.2608-22.40512-72.23296-11.73504-25.55904 10.11712-46.75584 31.1296-58.1632 57.6512a11.194368 11.194368 0 0 1-6.59456 6.10304 11.10016 11.10016 0 0 1-8.9088-0.79872c-15.81056-8.74496-33.81248-12.53376-52.06016-10.97728-43.9296 3.7888-79.48288 39.8336-82.69824 83.82464-1.82272 24.84224 6.2464 48.7424 22.67136 67.25632 16.46592 18.55488 39.13728 29.3888 63.83616 30.53568l12.26752 0.57344-2.29376 12.06272c-22.1184 115.87584-29.40928 272.83456 61.50144 362.3936 116.06016 114.33984 216.53504 87.9616 297.24672 66.7648 56.85248-14.92992 105.96352-27.81184 138.26048 18.96448 34.34496 49.74592 54.23104 53.59616 61.19424 52.85888 7.90528-0.77824 12.55424-8.04864 14.00832-10.77248 22.15936-160.41984 11.55072-271.09376-31.5392-329.03168a10.6496 10.6496 0 0 1 2.19136-14.88896 10.6496 10.6496 0 0 1 14.88896 2.19136c47.32928 63.65184 58.88 176.9472 35.30752 346.33728l-0.18432 1.35168-0.512 1.24928c-3.42016 8.2944-13.96736 22.81472-31.76448 24.71936-1.39264 0.08192-2.74432 0.16384-4.096 0.16384zM317.09184 173.8752c0.02048 0 0.02048 0.02048 0.04096 0.02048 0 0-0.02048 0-0.04096-0.02048z"
        p-id="1338"></path>
    <path
        d="M262.8608 384.53248c-61.93152 0-112.31232-50.3808-112.31232-112.31232 0-61.93152 50.3808-112.31232 112.31232-112.31232 5.87776 0 10.62912 4.77184 10.62912 10.62912 0 5.87776-4.77184 10.62912-10.62912 10.62912-50.19648 0-91.0336 40.83712-91.0336 91.0336s40.83712 91.0336 91.0336 91.0336c5.87776 0 10.62912 4.77184 10.62912 10.62912s-4.75136 10.67008-10.62912 10.67008z"
        p-id="1339"></path>
    <path
        d="M332.63616 384.53248h-69.75488c-5.87776 0-10.62912-4.77184-10.62912-10.62912s4.77184-10.62912 10.62912-10.62912h69.75488c5.87776 0 10.62912 4.77184 10.62912 10.62912s-4.75136 10.62912-10.62912 10.62912zM207.13472 281.88672c-2.048 0-4.07552-0.77824-5.632-2.33472a7.985152 7.985152 0 0 1 0-11.28448l24.35072-24.35072a7.985152 7.985152 0 0 1 11.28448 0 7.985152 7.985152 0 0 1 0 11.28448L212.7872 279.552c-1.57696 1.55648-3.60448 2.33472-5.65248 2.33472z"
        p-id="1340"></path>
    <path d="M337.408 263.9872a48.04608 41.69728 0 1 0 96.09216 0 48.04608 41.69728 0 1 0-96.09216 0Z" fill="#FF8E9E"
        p-id="1341"></path>
    <path
        d="M360.69376 235.68384c-4.4032 0-7.9872-3.56352-7.9872-7.9872V202.56768c0-4.4032 3.56352-7.9872 7.9872-7.9872 4.4032 0 7.9872 3.56352 7.9872 7.9872v25.14944a7.96672 7.96672 0 0 1-7.9872 7.96672z"
        p-id="1342"></path>
    <path
        d="M514.92864 766.58688v105.472c0 21.48352-20.5824 38.89152-45.95712 38.89152s-45.95712-17.408-45.95712-38.89152v-105.472"
        fill="#00CE8E" p-id="1343"></path>
    <path
        d="M468.97152 921.6c-31.21152 0-56.60672-22.2208-56.60672-49.52064v-105.472c0-5.87776 4.77184-10.62912 10.62912-10.62912 5.87776 0 10.62912 4.77184 10.62912 10.62912v105.472c0 15.5648 15.85152 28.24192 35.328 28.24192s35.328-12.67712 35.328-28.24192v-105.472c0-5.87776 4.77184-10.62912 10.62912-10.62912s10.62912 4.77184 10.62912 10.62912v105.472c0.02048 27.29984-25.35424 49.52064-56.56576 49.52064z"
        p-id="1344"></path>
    <path
        d="M746.86464 766.58688v105.472c0 21.48352-20.5824 38.89152-45.95712 38.89152s-45.95712-17.408-45.95712-38.89152v-105.472"
        fill="#00CE8E" p-id="1345"></path>
    <path
        d="M700.90752 921.6c-31.21152 0-56.60672-22.2208-56.60672-49.52064v-105.472c0-5.87776 4.77184-10.62912 10.62912-10.62912s10.62912 4.77184 10.62912 10.62912v105.472c0 15.5648 15.85152 28.24192 35.328 28.24192s35.328-12.67712 35.328-28.24192v-105.472c0-5.87776 4.77184-10.62912 10.62912-10.62912s10.62912 4.77184 10.62912 10.62912v105.472c0.04096 27.29984-25.35424 49.52064-56.56576 49.52064z"
        p-id="1346"></path>
</svg>